<?xml version="1.0" encoding="UTF-8" ?>
<!DOCTYPE svg PUBLIC "-//W3C//DTD SVG 1.1//EN" "http://www.w3.org/Graphics/SVG/1.1/DTD/svg11.dtd">
<svg width="1258pt" height="569pt" viewBox="0 0 1258 569" version="1.1" xmlns="http://www.w3.org/2000/svg">
<path fill="#f57b20" stroke="#f57b20" stroke-width="0.09375" opacity="1.00" d=" M 271.4 68.5 C 290.4 66.7 310.5 68.3 327.7 77.3 C 340.1 83.8 350.0 94.5 356.0 107.0 C 362.9 121.6 365.3 138.0 365.0 154.0 C 365.0 213.7 365.0 273.3 365.0 333.0 C 364.5 352.5 359.7 372.7 347.0 388.0 C 336.1 401.3 319.7 409.2 302.9 411.7 C 286.1 414.3 268.6 413.6 252.4 408.4 C 238.2 403.8 225.4 394.4 217.3 381.6 C 208.0 367.3 204.5 349.9 204.0 333.0 C 204.0 271.3 204.0 209.7 204.0 148.0 C 204.5 127.6 209.8 106.3 223.8 90.9 C 235.9 77.4 253.7 70.3 271.4 68.5 M 279.4 116.6 C 272.7 117.3 266.2 120.7 262.5 126.5 C 257.7 134.0 257.1 143.3 257.0 152.0 C 257.0 211.3 257.0 270.7 257.0 330.0 C 257.1 338.4 257.8 347.3 262.5 354.5 C 266.2 360.3 272.7 363.7 279.4 364.4 C 288.4 365.6 298.7 364.0 304.8 356.8 C 311.0 349.4 311.9 339.3 312.0 330.0 C 312.0 270.3 312.0 210.7 312.0 151.0 C 311.9 141.7 311.0 131.6 304.8 124.2 C 298.7 117.0 288.3 115.4 279.4 116.6 Z" />
<path fill="#f57b20" stroke="#f57b20" stroke-width="0.09375" opacity="1.00" d=" M 7.4 72.0 C 8.9 71.9 10.4 71.8 12.0 71.7 C 65.1 71.8 118.3 71.7 171.4 71.8 C 171.5 87.9 171.5 104.1 171.4 120.2 C 153.0 120.2 134.5 120.3 116.1 120.2 C 115.9 216.5 116.0 312.7 116.0 409.0 C 98.3 409.0 80.7 409.0 63.0 409.0 C 63.0 312.7 63.1 216.5 62.9 120.2 C 44.4 120.1 25.9 120.6 7.4 120.0 C 7.6 104.0 7.6 88.0 7.4 72.0 Z" />
<path fill="#f57b20" stroke="#f57b20" stroke-width="0.09375" opacity="1.00" d=" M 413.0 71.8 C 434.0 71.7 455.0 71.8 476.0 71.7 C 490.6 71.7 505.6 71.4 519.8 75.4 C 533.7 79.1 546.7 87.1 555.1 98.9 C 565.8 113.7 569.5 132.2 570.0 150.0 C 570.0 168.0 570.0 186.0 570.0 204.0 C 569.5 221.4 566.0 239.4 556.0 254.0 C 548.0 265.8 535.7 274.2 522.1 278.1 C 504.0 284.0 484.8 281.9 466.1 282.2 C 465.9 324.5 466.0 366.7 466.0 409.0 C 448.3 409.0 430.7 409.0 413.0 409.0 C 413.0 296.6 413.0 184.2 413.0 71.8 M 466.1 120.2 C 465.9 158.1 466.0 196.1 466.0 234.0 C 474.7 234.0 483.4 234.1 492.1 233.9 C 498.8 233.8 506.2 232.1 510.6 226.6 C 516.2 219.8 516.7 210.5 517.0 202.0 C 517.0 185.7 517.0 169.3 517.0 153.0 C 516.8 144.4 516.3 135.1 511.0 128.0 C 506.7 122.5 499.5 120.5 492.8 120.3 C 483.9 120.1 475.0 120.4 466.1 120.2 Z" />
<path fill="#f57b20" stroke="#f57b20" stroke-width="0.09375" opacity="1.00" d=" M 607.8 72.0 C 632.4 72.1 657.0 71.8 681.7 72.1 C 694.0 150.6 706.9 229.0 719.4 307.5 C 719.6 308.8 720.1 310.1 720.7 311.3 C 732.5 231.6 744.5 151.9 756.2 72.1 C 780.8 71.8 805.4 72.1 830.0 72.0 C 830.0 184.3 830.0 296.7 830.0 409.0 C 813.3 409.0 796.7 409.0 780.0 409.0 C 780.0 348.3 780.0 287.7 780.0 227.0 C 779.9 207.1 780.2 187.2 779.9 167.3 C 779.1 168.4 778.7 169.6 778.6 170.9 C 767.1 250.3 755.2 329.6 743.7 408.9 C 726.8 409.0 710.0 409.1 693.2 408.9 C 680.7 330.5 667.9 252.2 655.3 173.9 C 655.2 172.7 654.8 171.5 654.1 170.5 C 653.8 250.0 654.1 329.5 654.0 409.0 C 638.6 409.0 623.2 409.0 607.8 409.0 C 607.7 296.7 607.7 184.3 607.8 72.0 Z" />
<path fill="#f57b20" stroke="#f57b20" stroke-width="0.09375" opacity="1.00" d=" M 882.0 72.0 C 899.7 72.0 917.3 72.0 935.0 72.0 C 935.0 184.3 935.0 296.7 935.0 409.0 C 917.3 409.0 899.7 409.0 882.0 409.0 C 882.0 296.7 882.0 184.3 882.0 72.0 Z" />
<path fill="#f57b20" stroke="#f57b20" stroke-width="0.09375" opacity="1.00" d=" M 979.8 72.0 C 998.2 72.0 1016.5 72.0 1034.9 72.0 C 1046.9 109.8 1058.9 147.5 1070.9 185.3 C 1072.2 189.0 1072.9 192.9 1074.8 196.4 C 1083.5 170.6 1091.6 144.7 1100.1 118.9 C 1105.1 103.3 1110.4 87.8 1115.2 72.1 C 1131.7 71.9 1148.2 72.1 1164.6 72.0 C 1150.0 116.5 1134.7 160.7 1119.8 205.1 C 1116.5 215.4 1112.5 225.5 1109.6 236.0 C 1124.0 278.7 1138.7 321.2 1153.2 363.8 C 1158.3 378.9 1163.7 393.8 1168.5 409.0 C 1149.8 408.9 1131.0 409.2 1112.3 408.8 C 1098.9 366.0 1084.9 323.4 1071.3 280.7 C 1070.8 278.9 1070.1 277.2 1069.2 275.5 C 1061.7 297.7 1054.8 320.0 1047.4 342.3 C 1040.2 364.5 1032.9 386.7 1025.8 408.9 C 1009.2 409.1 992.6 409.0 975.9 409.0 C 995.4 351.3 1015.4 293.7 1034.8 236.0 C 1032.6 227.1 1029.0 218.5 1026.3 209.7 C 1010.8 163.8 995.1 118.0 979.8 72.0 Z" />
<path fill="#3a3a3c" stroke="#3a3a3c" stroke-width="0.09375" opacity="1.00" d=" M 16.6 483.6 C 26.8 470.9 45.6 467.8 60.3 473.8 C 65.0 475.8 69.0 478.9 72.8 482.2 C 71.0 484.4 69.0 486.4 67.0 488.4 C 62.5 484.5 57.6 480.8 51.6 479.5 C 42.0 477.0 31.0 479.8 24.3 487.4 C 13.7 498.8 14.1 518.7 25.4 529.6 C 31.2 535.5 39.8 538.2 48.0 537.2 C 55.5 536.6 62.2 532.4 67.3 527.1 C 69.3 528.8 72.1 530.2 72.8 532.8 C 65.9 540.1 56.2 545.0 46.1 545.0 C 36.2 545.6 25.9 542.2 18.9 535.1 C 5.1 522.0 4.2 498.0 16.6 483.6 Z" />
<path fill="#3a3a3c" stroke="#3a3a3c" stroke-width="0.09375" opacity="1.00" d=" M 193.4 471.6 C 204.3 469.7 216.2 471.9 224.7 479.3 C 237.9 490.1 241.2 510.4 233.5 525.4 C 229.2 533.9 221.4 540.6 212.2 543.4 C 198.6 547.6 182.4 544.0 173.0 533.0 C 161.0 519.5 160.8 497.3 172.7 483.6 C 177.9 477.3 185.4 473.1 193.4 471.6 M 194.3 479.3 C 186.8 480.9 180.2 485.9 176.5 492.6 C 169.4 505.0 172.1 522.5 183.5 531.4 C 193.9 539.8 210.4 539.3 219.9 529.9 C 231.7 518.8 231.9 498.0 220.3 486.7 C 213.7 479.9 203.5 477.2 194.3 479.3 Z" />
<path fill="#3a3a3c" stroke="#3a3a3c" stroke-width="0.09375" opacity="1.00" d=" M 504.3 485.2 C 510.0 477.4 519.2 472.1 528.9 471.1 C 535.8 470.6 542.9 471.0 549.3 473.8 C 554.0 475.8 558.0 478.9 561.8 482.2 C 560.0 484.4 558.0 486.4 556.0 488.4 C 551.3 484.3 546.1 480.4 539.8 479.3 C 530.4 477.2 519.8 480.0 513.3 487.4 C 502.5 499.0 503.1 519.4 514.9 530.1 C 522.8 537.7 535.2 539.3 545.1 535.1 C 549.4 533.2 553.1 530.3 556.4 527.1 C 558.3 528.8 561.1 530.2 561.8 532.8 C 548.9 547.4 524.2 549.5 509.5 536.5 C 494.8 524.2 492.8 500.3 504.3 485.2 Z" />
<path fill="#3a3a3c" stroke="#3a3a3c" stroke-width="0.09375" opacity="1.00" d=" M 337.0 472.0 C 339.6 472.0 342.2 472.0 344.9 472.0 C 359.9 491.0 374.7 510.2 389.9 529.1 C 390.1 510.1 389.9 491.0 390.0 472.0 C 392.7 472.0 395.3 472.0 398.0 472.0 C 398.0 496.0 398.0 520.0 398.0 544.0 C 395.7 544.0 393.4 544.0 391.2 544.0 C 378.6 527.8 365.9 511.8 353.2 495.8 C 350.5 492.4 348.0 488.8 345.1 485.7 C 344.9 505.1 345.0 524.6 345.0 544.0 C 342.3 544.0 339.7 544.0 337.0 544.0 C 337.0 520.0 337.0 496.0 337.0 472.0 Z" />
<path fill="#3a3a3c" stroke="#3a3a3c" stroke-width="0.09375" opacity="1.00" d=" M 659.0 472.0 C 669.7 472.0 680.3 472.0 691.0 472.0 C 697.0 471.9 703.2 473.4 708.2 476.8 C 718.7 483.9 719.2 501.5 709.3 509.3 C 705.8 512.2 701.4 513.7 697.1 514.5 C 704.2 524.5 711.7 534.1 718.9 543.9 C 715.4 544.0 711.9 544.1 708.3 543.8 C 701.7 534.4 694.6 525.4 687.8 516.1 C 680.9 516.0 674.1 515.9 667.2 516.1 C 667.3 525.4 667.3 534.7 667.2 544.0 C 664.5 544.0 661.7 544.0 659.0 544.0 C 659.0 520.0 659.0 496.0 659.0 472.0 M 667.2 479.8 C 667.4 489.4 667.2 499.1 667.2 508.8 C 674.2 508.7 681.1 508.8 688.1 508.7 C 692.9 508.7 698.0 508.0 702.1 505.2 C 708.9 500.8 710.1 489.6 703.9 484.1 C 699.0 479.8 692.2 479.5 686.0 479.5 C 679.7 479.7 673.4 479.3 667.2 479.8 Z" />
<path fill="#3a3a3c" stroke="#3a3a3c" stroke-width="0.09375" opacity="1.00" d=" M 816.0 471.8 C 833.4 471.7 850.8 471.7 868.2 471.8 C 868.3 474.4 868.3 477.1 867.9 479.7 C 853.4 479.6 838.8 479.3 824.2 479.8 C 824.3 487.8 824.3 495.9 824.2 503.9 C 837.4 504.2 850.6 503.8 863.8 504.1 C 863.8 506.6 863.7 509.1 863.7 511.7 C 850.5 511.6 837.3 511.3 824.2 511.8 C 824.3 519.9 824.3 528.1 824.2 536.2 C 839.0 536.7 853.9 536.4 868.7 536.3 C 868.7 538.9 868.7 541.5 868.8 544.1 C 851.2 544.5 833.6 544.3 816.0 544.2 C 816.0 520.1 816.0 495.9 816.0 471.8 Z" />
<path fill="#3a3a3c" stroke="#3a3a3c" stroke-width="0.09375" opacity="1.00" d=" M 961.8 472.0 C 980.7 472.1 999.7 471.8 1018.7 472.2 C 1018.6 474.6 1018.5 477.1 1018.6 479.6 C 1010.5 479.6 1002.3 479.3 994.2 479.8 C 994.3 501.2 994.3 522.6 994.2 544.0 C 991.5 544.0 988.7 544.0 986.0 544.0 C 986.0 522.6 986.0 501.1 986.0 479.7 C 978.0 479.5 970.0 479.5 962.0 479.7 C 961.7 477.1 961.7 474.6 961.8 472.0 Z" />
<path fill="#3a3a3c" stroke="#3a3a3c" stroke-width="0.09375" opacity="1.00" d=" M 1116.0 471.8 C 1133.4 471.7 1150.8 471.7 1168.2 471.8 C 1168.3 474.4 1168.3 477.1 1168.0 479.7 C 1153.4 479.6 1138.8 479.3 1124.2 479.8 C 1124.3 487.8 1124.3 495.9 1124.2 503.9 C 1137.4 504.2 1150.6 503.8 1163.8 504.1 C 1163.8 506.6 1163.7 509.1 1163.7 511.7 C 1150.5 511.6 1137.3 511.3 1124.2 511.8 C 1124.3 519.9 1124.3 528.1 1124.2 536.2 C 1139.0 536.7 1153.9 536.4 1168.7 536.3 C 1168.7 538.9 1168.7 541.5 1168.8 544.1 C 1151.2 544.5 1133.6 544.2 1116.0 544.2 C 1116.0 520.1 1116.0 495.9 1116.0 471.8 Z" />
</svg>
