<?xml version="1.0" encoding="UTF-8" ?>
<!DOCTYPE svg PUBLIC "-//W3C//DTD SVG 1.1//EN" "http://www.w3.org/Graphics/SVG/1.1/DTD/svg11.dtd">
<svg width="1258pt" height="569pt" viewBox="0 0 1258 569" version="1.1" xmlns="http://www.w3.org/2000/svg">
<path fill="#f57b20" stroke="#f57b20" stroke-width="0.09375" opacity="1.00" d=" M 271.4 68.5 C 290.2 66.7 310.0 68.3 327.0 77.0 C 339.2 83.2 349.2 93.5 355.3 105.7 C 361.9 118.7 364.6 133.5 365.0 148.0 C 365.0 209.7 365.0 271.3 365.0 333.0 C 364.5 353.4 359.2 374.7 345.2 390.1 C 333.7 403.0 316.9 410.1 300.0 412.2 C 283.1 414.2 265.5 413.3 249.5 407.4 C 236.2 402.4 224.4 393.2 216.9 381.0 C 207.9 366.8 204.5 349.7 204.0 333.0 C 204.0 273.3 204.0 213.7 204.0 154.0 C 203.7 138.0 206.1 121.6 213.0 107.0 C 219.0 94.5 228.9 83.7 241.3 77.3 C 250.6 72.4 261.0 69.7 271.4 68.5 M 279.4 116.6 C 272.7 117.3 266.1 120.7 262.5 126.5 C 257.8 133.7 257.1 142.6 257.0 151.0 C 257.0 211.0 257.0 271.0 257.0 331.0 C 257.2 339.9 258.2 349.7 264.2 356.8 C 270.7 364.4 281.9 365.8 291.2 364.1 C 298.6 363.0 305.3 358.2 308.3 351.3 C 313.1 340.6 311.8 328.5 312.0 317.0 C 312.0 261.7 312.0 206.3 312.0 151.0 C 311.9 141.7 311.0 131.6 304.8 124.2 C 298.7 117.0 288.3 115.4 279.4 116.6 Z" />
<path fill="#f57b20" stroke="#f57b20" stroke-width="0.09375" opacity="1.00" d=" M 7.4 72.0 C 11.3 71.6 15.1 71.7 19.0 71.8 C 69.8 71.8 120.6 71.7 171.4 71.8 C 171.5 87.9 171.5 104.1 171.4 120.2 C 153.0 120.2 134.5 120.3 116.0 120.2 C 115.9 216.5 116.0 312.7 116.0 409.0 C 98.3 409.0 80.7 409.0 63.0 409.0 C 63.0 312.7 63.1 216.5 63.0 120.2 C 44.4 120.2 25.9 120.5 7.4 120.0 C 7.6 104.0 7.6 88.0 7.4 72.0 Z" />
<path fill="#f57b20" stroke="#f57b20" stroke-width="0.09375" opacity="1.00" d=" M 413.0 71.8 C 433.3 71.7 453.7 71.8 474.0 71.8 C 486.5 71.8 499.2 71.3 511.6 73.5 C 526.7 76.1 541.4 82.8 551.5 94.5 C 564.7 109.3 569.3 129.6 570.0 149.0 C 570.0 165.3 570.0 181.7 570.0 198.0 C 570.3 212.8 568.4 227.9 562.7 241.7 C 557.7 253.9 548.8 264.7 537.4 271.5 C 525.8 278.4 512.3 281.3 499.0 282.1 C 488.0 282.4 477.0 282.2 466.0 282.2 C 465.9 324.5 466.0 366.7 466.0 409.0 C 448.3 409.0 430.7 409.0 413.0 409.0 C 413.0 296.6 413.0 184.2 413.0 71.8 M 466.0 120.2 C 465.9 158.1 466.0 196.1 466.0 234.0 C 474.7 233.9 483.4 234.1 492.1 233.9 C 498.8 233.8 506.2 232.1 510.6 226.6 C 516.2 219.8 516.7 210.5 517.0 202.0 C 517.0 185.7 517.0 169.3 517.0 153.0 C 516.8 144.4 516.3 135.1 511.0 128.0 C 506.7 122.5 499.5 120.5 492.8 120.3 C 483.9 120.1 475.0 120.3 466.0 120.2 Z" />
<path fill="#f57b20" stroke="#f57b20" stroke-width="0.09375" opacity="1.00" d=" M 607.8 72.0 C 632.4 72.1 657.0 71.9 681.6 72.1 C 694.0 150.6 706.9 229.0 719.4 307.5 C 719.6 308.8 720.1 310.1 720.6 311.4 C 732.6 231.6 744.5 151.9 756.2 72.1 C 780.8 71.9 805.4 72.1 830.0 72.0 C 830.0 184.3 830.0 296.7 830.0 409.0 C 813.3 409.0 796.7 409.0 780.0 409.0 C 780.0 347.7 780.0 286.3 780.0 225.0 C 779.9 205.7 780.2 186.5 779.9 167.2 C 779.2 168.3 778.8 169.6 778.6 170.9 C 767.1 250.2 755.2 329.6 743.7 408.9 C 726.8 409.0 710.0 409.1 693.2 408.9 C 680.9 331.6 668.2 254.5 655.9 177.2 C 655.5 174.9 655.3 172.5 654.1 170.4 C 653.8 249.9 654.1 329.5 654.0 409.0 C 638.6 409.0 623.2 409.0 607.8 409.0 C 607.7 296.7 607.7 184.3 607.8 72.0 Z" />
<path fill="#f57b20" stroke="#f57b20" stroke-width="0.09375" opacity="1.00" d=" M 882.0 72.0 C 899.7 72.0 917.3 72.0 935.0 72.0 C 935.0 184.3 935.0 296.7 935.0 409.0 C 917.3 409.0 899.7 409.0 882.0 409.0 C 882.0 296.7 882.0 184.3 882.0 72.0 Z" />
<path fill="#f57b20" stroke="#f57b20" stroke-width="0.09375" opacity="1.00" d=" M 979.8 72.0 C 998.1 72.0 1016.5 72.0 1034.9 72.0 C 1046.9 109.8 1058.9 147.5 1070.9 185.3 C 1072.1 189.0 1072.9 192.9 1074.8 196.4 C 1083.4 170.9 1091.4 145.2 1099.9 119.7 C 1104.9 103.8 1110.4 88.0 1115.2 72.1 C 1131.7 71.9 1148.2 72.1 1164.7 72.0 C 1150.1 116.2 1134.9 160.2 1120.1 204.3 C 1116.7 214.9 1112.6 225.3 1109.6 236.0 C 1129.1 293.7 1149.2 351.2 1168.5 409.0 C 1149.8 408.9 1131.1 409.2 1112.3 408.8 C 1098.8 365.8 1084.7 323.0 1071.1 280.0 C 1070.6 278.4 1070.0 276.9 1069.3 275.5 C 1054.5 319.9 1040.3 364.4 1025.8 408.9 C 1009.2 409.1 992.5 409.0 975.9 409.0 C 995.3 351.8 1014.9 294.6 1034.4 237.5 C 1035.0 236.3 1034.8 235.0 1034.4 233.8 C 1016.2 179.9 997.8 126.0 979.8 72.0 Z" />
<path fill="#ffffff" stroke="#ffffff" stroke-width="0.09375" opacity="1.00" d=" M 15.7 484.7 C 25.9 471.0 45.8 467.5 60.9 474.1 C 65.4 476.0 69.2 479.1 72.8 482.2 C 71.0 484.4 69.0 486.4 67.0 488.5 C 61.6 483.3 54.7 479.2 47.0 478.7 C 37.9 477.8 28.5 481.7 23.0 489.0 C 13.3 501.0 14.7 520.4 26.4 530.6 C 34.5 537.9 47.0 539.3 56.8 534.7 C 61.0 533.1 64.1 529.6 67.8 527.3 C 69.4 529.0 72.4 530.4 72.8 532.8 C 65.7 540.4 55.6 545.4 45.0 545.0 C 35.5 545.4 25.7 541.9 18.9 535.1 C 5.4 522.3 4.3 499.2 15.7 484.7 Z" />
<path fill="#ffffff" stroke="#ffffff" stroke-width="0.09375" opacity="1.00" d=" M 193.4 471.6 C 204.5 469.6 216.7 472.1 225.2 479.7 C 238.0 490.7 241.2 510.6 233.5 525.4 C 228.7 535.0 219.5 542.1 209.1 544.2 C 198.5 546.4 186.8 544.5 178.2 537.8 C 164.0 527.3 160.0 506.4 167.9 490.9 C 172.7 480.9 182.5 473.6 193.4 471.6 M 193.4 479.5 C 187.3 481.2 181.7 484.9 178.1 490.1 C 169.8 501.6 170.9 518.9 180.9 529.1 C 188.9 537.5 202.4 539.8 212.8 534.7 C 219.9 531.5 225.3 524.9 227.5 517.4 C 231.1 506.0 227.7 492.4 218.2 484.8 C 211.4 479.2 201.9 477.3 193.4 479.5 Z" />
<path fill="#ffffff" stroke="#ffffff" stroke-width="0.09375" opacity="1.00" d=" M 504.7 484.7 C 514.9 471.0 534.8 467.5 550.0 474.1 C 554.4 476.0 558.2 479.1 561.8 482.2 C 560.0 484.4 558.0 486.4 556.0 488.5 C 550.6 483.3 543.7 479.2 536.0 478.7 C 526.9 477.8 517.5 481.7 512.0 489.0 C 502.3 501.0 503.7 520.4 515.4 530.6 C 523.5 537.9 536.0 539.3 545.8 534.7 C 549.8 533.0 553.0 530.1 556.3 527.4 C 558.4 528.3 561.2 530.6 561.8 532.8 C 554.7 540.3 544.6 545.4 534.0 545.0 C 524.5 545.4 514.7 541.9 507.9 535.1 C 494.4 522.3 493.3 499.2 504.7 484.7 Z" />
<path fill="#ffffff" stroke="#ffffff" stroke-width="0.09375" opacity="1.00" d=" M 337.0 472.0 C 339.6 472.0 342.2 472.0 344.9 472.0 C 359.9 491.1 374.9 510.2 390.0 529.2 C 390.0 510.2 390.0 491.1 390.0 472.0 C 392.7 472.0 395.3 472.0 398.0 472.0 C 398.0 496.0 398.0 520.0 398.0 544.0 C 395.7 544.0 393.5 544.0 391.2 544.0 C 375.8 524.5 360.6 504.9 345.0 485.5 C 345.0 505.0 345.0 524.5 345.0 544.0 C 342.3 544.0 339.7 544.0 337.0 544.0 C 337.0 520.0 337.0 496.0 337.0 472.0 Z" />
<path fill="#ffffff" stroke="#ffffff" stroke-width="0.09375" opacity="1.00" d=" M 659.0 472.0 C 670.4 472.0 681.7 472.0 693.1 472.0 C 700.2 472.4 707.7 475.0 712.3 480.7 C 716.8 486.7 717.4 495.1 714.8 502.0 C 711.9 509.2 704.4 513.4 697.0 514.6 C 704.3 524.4 711.6 534.2 719.0 544.0 C 715.5 543.8 711.9 544.4 708.4 543.7 C 701.5 534.5 694.6 525.3 687.8 516.0 C 680.9 516.0 674.1 516.0 667.2 516.0 C 667.3 525.4 667.2 534.7 667.3 544.0 C 664.5 544.0 661.7 544.0 659.0 544.0 C 659.0 520.0 659.0 496.0 659.0 472.0 M 667.2 479.6 C 667.4 489.3 667.2 499.0 667.2 508.8 C 674.7 508.7 682.2 508.9 689.6 508.7 C 695.3 508.5 701.6 506.9 705.2 502.2 C 709.3 496.7 708.9 488.0 703.3 483.6 C 698.8 479.9 692.6 479.6 687.0 479.5 C 680.4 479.5 673.8 479.4 667.2 479.6 Z" />
<path fill="#ffffff" stroke="#ffffff" stroke-width="0.09375" opacity="1.00" d=" M 816.0 471.7 C 833.4 471.8 850.8 471.8 868.3 471.7 C 868.3 474.3 868.3 477.0 868.1 479.6 C 853.5 479.5 838.8 479.4 824.2 479.6 C 824.3 487.7 824.2 495.9 824.2 504.0 C 837.4 504.0 850.6 504.0 863.8 504.0 C 863.7 506.5 863.7 509.0 863.7 511.5 C 850.5 511.5 837.3 511.4 824.2 511.6 C 824.3 519.9 824.3 528.1 824.2 536.4 C 839.0 536.6 853.9 536.5 868.7 536.5 C 868.7 539.0 868.7 541.6 868.8 544.2 C 851.2 544.3 833.6 544.2 816.0 544.3 C 816.0 520.1 816.0 495.9 816.0 471.7 Z" />
<path fill="#ffffff" stroke="#ffffff" stroke-width="0.09375" opacity="1.00" d=" M 961.7 472.0 C 980.7 472.0 999.6 471.9 1018.6 472.1 C 1018.5 474.5 1018.5 477.0 1018.5 479.5 C 1010.4 479.5 1002.3 479.4 994.2 479.6 C 994.4 501.1 994.2 522.5 994.3 544.0 C 991.5 544.0 988.7 544.0 986.0 544.0 C 986.0 522.5 986.0 501.0 986.0 479.5 C 978.0 479.5 969.9 479.4 961.9 479.6 C 961.7 477.0 961.7 474.5 961.7 472.0 Z" />
<path fill="#ffffff" stroke="#ffffff" stroke-width="0.09375" opacity="1.00" d=" M 1116.0 471.7 C 1133.4 471.8 1150.8 471.8 1168.3 471.7 C 1168.3 474.3 1168.3 477.0 1168.1 479.6 C 1153.5 479.5 1138.8 479.4 1124.2 479.6 C 1124.3 487.7 1124.2 495.8 1124.2 504.0 C 1137.4 504.0 1150.6 504.0 1163.8 504.0 C 1163.7 506.5 1163.7 509.0 1163.7 511.5 C 1150.5 511.5 1137.4 511.4 1124.2 511.6 C 1124.3 519.9 1124.3 528.1 1124.2 536.4 C 1139.0 536.6 1153.9 536.5 1168.7 536.5 C 1168.7 539.0 1168.7 541.6 1168.8 544.2 C 1151.2 544.3 1133.6 544.2 1116.0 544.3 C 1116.0 520.1 1116.0 495.9 1116.0 471.7 Z" />
</svg>
